<?xml version="1.0" encoding="utf-8"?>
<!-- Generator: Adobe Illustrator 14.0.0, SVG Export Plug-In . SVG Version: 6.00 Build 43363)  -->
<!DOCTYPE svg PUBLIC "-//W3C//DTD SVG 1.1//EN" "http://www.w3.org/Graphics/SVG/1.1/DTD/svg11.dtd">
<svg version="1.1" id="Layer_1" xmlns="http://www.w3.org/2000/svg" xmlns:xlink="http://www.w3.org/1999/xlink" x="0px" y="0px"
	 width="612px" height="392px" viewBox="0 200 612 392" enable-background="new 0 0 612 792" xml:space="preserve">
<g>
	<polygon fill-rule="evenodd" clip-rule="evenodd" fill="#112222" points="209,300 401.756,300 401.756,492.756 209,492.756
		209,300 	"/>
	<polygon fill="#6C7479" points="393.252,416.282 217.504,416.282 217.504,376.473 393.252,376.473 393.252,416.282 	"/>
	<polygon fill="#FFFFFF" points="232.201,402.809 232.201,390.314 234.521,390.314 234.521,400.849 240.207,400.849 
		240.207,402.809 232.201,402.809 	"/>
	<path fill="#FFFFFF" d="M252.699,396.561c0,2.63-1.871,4.533-4.209,4.533c-2.337,0-4.188-1.921-4.188-4.533
		c0-2.629,1.832-4.535,4.188-4.535C250.847,392.025,252.699,393.914,252.699,396.561L252.699,396.561z M255.075,396.561
		c0-1.853-0.674-3.494-1.928-4.746c-1.234-1.236-2.917-1.907-4.658-1.907c-2.038,0-3.965,0.918-5.217,2.542
		c-0.899,1.165-1.366,2.558-1.366,4.111c0,1.871,0.672,3.494,1.945,4.746c1.252,1.235,2.898,1.906,4.637,1.906
		c1.74,0,3.406-0.688,4.658-1.924C254.401,400.055,255.075,398.415,255.075,396.561L255.075,396.561z"/>
	<path fill="#FFFFFF" d="M265.455,394.02c0,1.271-1.029,1.993-3.085,1.993h-1.066v-3.916h0.86
		C264.352,392.097,265.455,392.644,265.455,394.02L265.455,394.02z M269.157,402.809l-4.282-5.488
		c1.871-0.602,2.899-1.835,2.899-3.478c0-1.022-0.562-2.01-1.553-2.664c-1.141-0.759-2.449-0.865-4.132-0.865h-3.069v12.494h2.283
		v-5.19h1.121l4.022,5.19H269.157L269.157,402.809z"/>
	<polygon fill="#FFFFFF" points="272.45,402.809 272.45,390.314 280.155,390.314 280.155,392.237 274.712,392.237 274.712,395.309 
		279.388,395.309 279.388,397.214 274.712,397.214 274.712,400.866 280.25,400.866 280.25,402.809 272.45,402.809 	"/>
	<polygon fill="#FFFFFF" points="296.297,402.809 294.857,395.749 291.115,403.231 290.909,403.231 287.02,395.749 285.58,402.809 
		283.428,402.809 286.14,389.908 286.29,389.908 291.022,399.049 295.734,389.908 295.886,389.908 298.579,402.809 296.297,402.809 
			"/>
	<polygon fill="#FFFFFF" points="316.309,402.809 316.309,390.314 318.645,390.314 318.645,402.809 316.309,402.809 	"/>
	<path fill="#FFFFFF" d="M340.474,403.231c-1.253,0-2.469-0.248-3.573-0.742l-0.203-2.453c1.363,0.83,2.543,1.271,3.663,1.271
		c1.441,0,2.339-0.759,2.339-1.745c0-0.935-0.618-1.518-1.947-2.276l-0.99-0.566c-1.814-1.041-2.788-1.993-2.788-3.529
		c0-1.922,1.592-3.299,4.021-3.299c1.159,0,2.227,0.248,3.33,0.759l-0.073,1.994c-1.234-0.635-2.245-0.988-3.088-0.988
		c-1.254,0-1.963,0.581-1.963,1.429c0,0.775,0.599,1.27,1.814,1.94l0.952,0.529c2.021,1.129,3.066,2.224,3.066,3.953
		C345.034,401.678,343.314,403.231,340.474,403.231L340.474,403.231z"/>
	<path fill="#FFFFFF" d="M354.519,403.213c-3.461,0-5.518-1.941-5.518-5.595v-7.304h2.358v7.287c0,2.417,1.102,3.653,3.217,3.653
		c2.076,0,3.179-1.254,3.179-3.706v-7.234h2.076v7.271C359.831,401.235,357.681,403.213,354.519,403.213L354.519,403.213z"/>
	<polygon fill="#FFFFFF" points="376.327,402.809 374.887,395.749 371.146,403.231 370.939,403.231 367.05,395.749 365.61,402.809 
		363.459,402.809 366.172,389.908 366.319,389.908 371.054,399.049 375.767,389.908 375.917,389.908 378.609,402.809 
		376.327,402.809 	"/>
	<path fill="#EDA8C3" d="M328.04,400.208v2.035l-2.342,0.485v-4.393c2.919-0.347,4.457-1.525,4.457-3.211
		c0-1.387-1.056-2.313-2.964-2.313c-0.506,0-1.15,0.071-1.908,0.187v-2.451c0.966-0.138,1.745-0.208,2.346-0.208
		c3.217,0,5.238,1.919,5.238,4.438C332.867,397.437,331.235,399.307,328.04,400.208L328.04,400.208z M326.866,407.511
		c-0.78,0-1.447-0.669-1.447-1.454c0-0.811,0.667-1.479,1.447-1.479c0.83,0,1.473,0.646,1.473,1.479
		C328.339,406.865,327.673,407.511,326.866,407.511L326.866,407.511z"/>
</g>
</svg>
